<?xml version="1.0" encoding="UTF-8"?>
<!DOCTYPE svg PUBLIC "-//W3C//DTD SVG 1.1//EN" "http://www.w3.org/Graphics/SVG/1.1/DTD/svg11.dtd">
<svg xmlns="http://www.w3.org/2000/svg" version="1.1" width="720px" height="720px" style="shape-rendering:geometricPrecision; text-rendering:geometricPrecision; image-rendering:optimizeQuality; fill-rule:evenodd; clip-rule:evenodd" xmlns:xlink="http://www.w3.org/1999/xlink">
<g><path style="opacity:0.952" fill="#00be62" d="M 184.5,44.5 C 190.563,43.8377 196.23,45.0044 201.5,48C 313.509,112.681 425.509,177.347 537.5,242C 548.605,249.488 551.272,259.322 545.5,271.5C 541.793,276.518 537.126,280.351 531.5,283C 492.199,305.319 452.865,327.653 413.5,350C 402.708,351.568 394.875,347.402 390,337.5C 388.052,329.583 389.885,322.75 395.5,317C 427.559,297.849 459.892,279.183 492.5,261C 388.276,200.681 283.943,140.348 179.5,80C 169.518,71.7899 168.018,62.2899 175,51.5C 177.79,48.535 180.957,46.2016 184.5,44.5 Z"/></g>
<g><path style="opacity:0.946" fill="#00be62" d="M 524.5,45.5 C 541.826,46.6487 548.659,55.6487 545,72.5C 542.537,75.9646 539.704,79.1312 536.5,82C 496.637,104.761 456.971,127.761 417.5,151C 407.239,155.729 398.406,153.896 391,145.5C 385.614,135.371 387.114,126.371 395.5,118.5C 436.08,94.7309 476.747,71.2309 517.5,48C 519.927,47.0977 522.26,46.2644 524.5,45.5 Z"/></g>
<g><path style="opacity:0.953" fill="#00be62" d="M 304.5,172.5 C 310.526,171.803 316.192,172.803 321.5,175.5C 329.491,182.205 331.657,190.539 328,200.5C 324.799,204.036 321.299,207.203 317.5,210C 287.971,226.258 258.971,243.258 230.5,261C 332.141,319.978 433.808,378.645 535.5,437C 549.424,444.27 553.09,455.104 546.5,469.5C 544.95,471.428 543.283,473.261 541.5,475C 500.24,498.455 459.24,522.122 418.5,546C 402.215,550.535 392.881,544.535 390.5,528C 391.69,519.138 396.357,512.805 404.5,509C 434.167,492 463.833,475 493.5,458C 389.137,397.151 284.47,336.818 179.5,277C 167.49,265.672 167.823,254.672 180.5,244C 221.723,219.936 263.057,196.103 304.5,172.5 Z"/></g>
<g><path style="opacity:0.952" fill="#00be62" d="M 310.5,368.5 C 324.301,370.127 331.134,377.793 331,391.5C 330.279,395.342 328.613,398.676 326,401.5C 321.763,405.036 317.263,408.202 312.5,411C 285.35,426.408 258.35,442.075 231.5,458C 334.575,518.066 437.908,577.733 541.5,637C 555.141,649.487 554.474,661.153 539.5,672C 533.7,674.041 528.033,673.707 522.5,671C 409.84,605.244 296.674,540.077 183,475.5C 174.471,470.107 171.137,462.44 173,452.5C 175.259,448.405 178.093,444.738 181.5,441.5C 217.65,420.925 253.65,400.092 289.5,379C 296.282,374.942 303.282,371.442 310.5,368.5 Z"/></g>
<g><path style="opacity:0.946" fill="#00be62" d="M 310.5,566.5 C 325.797,566.629 332.964,574.296 332,589.5C 331.111,594.056 328.944,597.889 325.5,601C 283.071,625.766 240.404,650.099 197.5,674C 183.929,675.28 175.929,669.113 173.5,655.5C 174.109,648.117 177.442,642.284 183.5,638C 223.767,615.531 263.767,592.531 303.5,569C 305.927,568.098 308.26,567.264 310.5,566.5 Z"/></g>
</svg>
